<svg id="Layer_1" data-name="Layer 1" xmlns="http://www.w3.org/2000/svg" xmlns:xlink="http://www.w3.org/1999/xlink" viewBox="0 0 1500 1000"><defs><style>.cls-1{fill:none;}.cls-2{clip-path:url(#clip-path);}.cls-3{fill:#007fff;}.cls-4{fill:#f7d618;}.cls-5{fill:#ce1021;}</style><clipPath id="clip-path"><path class="cls-1" d="M872.74,688.05l-73.16,11.44c-.24,1-.51,1.49-.37,1.68,2.78,4,1.45,7.31-.88,11.21-4.15,6.93-10.36,11.35-16.61,15.89-.86.62-1.75,1.2-2.61,1.82-.12.09-.14.31-.3.68,1.49,1,3.48,1.73,4.43,3.16s.31,3.5.93,5.1a63.66,63.66,0,0,0,4.2,8.68,10.41,10.41,0,0,1,.93,9.21c-.68,2-.56,4.23-1.2,6.23-1.42,4.48-.68,8.49.51,13,.88,3.36,1.1,7.22,2.12,10.59-5.49,5.38-7.28,12-8.13,19-.29,2.32-.1,4.83-.94,6.92a28.47,28.47,0,0,0-1.55,18.16c.52,2.12,1.07,3.67,3.18,4.49,9.72,3.73,15.65,11.61,21.44,20.23,5.08-.68,9.87,1.24,14.71,3.1,1.1.42,2.49.06,3.69.06.08-1,.25-1.39.12-1.65-.86-1.69-2.71-3.28-1-5.32,1.49-1.76,2.93-3.3,5.92-2.51,1.8.47,4.05-.75,6.44-1.22.12,1.38.35,2.74.35,4.09q0,21,0,42.08v2.16c0,1.86-.7,3.22-2.62,3.45a3.55,3.55,0,0,1-4.06-2.76,20.07,20.07,0,0,1-.2-3.74c-.28-3-1.62-3.78-4.27-2.24-4.6,2.71-9.13,5.55-13.9,8.46-.75-1-1.5-2-2.31-3.12l-4.92,1.86c-.75-1.83-1.49-3.4-2-5-.66-2.18-.83-4.53-3.37-5.68a2.76,2.76,0,0,1-1.19-2.24c.6-5.44-3.89-7.59-6.66-11.15l-4,2.63-3.68-6.86,2.41-4.13c-2.77-3.2-5.58-6.6-9.57-8.14-3.74-1.45-7.91-1.82-12.66-2.83L760.43,851a31.12,31.12,0,0,0-5.54,0c-5.23.93-8.43-.38-10.82-5.29-1.06-2.17-1.44-4.67-2.29-7.6a12.16,12.16,0,0,1-1.21-.83c-7.18-5.3-7.18-5.3-9-13.86a33.7,33.7,0,0,1-4.38,1.6c-2.76.61-3.88,2.18-3.79,5a19.8,19.8,0,0,1-.65,4.78c-1,4.7-1.13,4.73-6.06,4.9a5.86,5.86,0,0,0-2.64.23c-3.49,2-6.64.59-9.71-.88a9,9,0,0,0-6-1,50.07,50.07,0,0,1-12.89.16c-1.49-.13-3.06-1.68-4.22-2.93-1.45-1.57-2.8-2.5-5.1-2.18a7.85,7.85,0,0,1-4-1c-2.76-1.25-2.71-1.33-5.63-.26-2.33-2-4.53-3.93-6.77-5.82-1.5-1.28-3.27-2.38-2.31-4.86a1.8,1.8,0,0,0-.17-1.55c-2.4-3-1.15-5.69.55-8.41a14,14,0,0,0,.74-2.85c-7.69,2.91-15.52.75-22.35,4.48a33.82,33.82,0,0,0-5.64,3.92c-4.6,3.93-7.47,3.65-11.61-1.33,4.88-9.41,3-13-7.31-13.68l-.91-4.12c-2-.68-4.11-2.24-6.33-.37A57.49,57.49,0,0,0,599.9,802c-2.39-1.28-4.49-2.33-7.22-1.55-1.44.4-3.56-.55-5-1.46-2.6-1.63-4.79-1-7,.53a32.24,32.24,0,0,0-3.8,3,7.46,7.46,0,0,1-8.51,1.5c-3.62-1.62-7-1.29-10.46-.23a7.1,7.1,0,0,1-6.6-.85c-2.85-1.89-4.21-1.67-5.65,1.2-1.89,3.81-5,5.35-8.71,6.38-.75-3.78-1.39-7.47-2.29-11.06-1.22-4.88-1.31-4.85,2.57-7.77a17.32,17.32,0,0,0,1.49-1.31c0-2.07.17-4,0-5.9-.55-5.39.75-11-2.8-16.07-1.36-1.93-.92-5.17-1.14-7.83-.17-1.91-.46-3.81-2.55-4.28-2.63-.57-3.68-2.57-5.05-4.48a39.86,39.86,0,0,0-4.19-4.9c-4.48-4.48-5.53-9.28-3.16-15.11.53-1.31,1.26-2.85,1-4.09-1.32-6.07.64-11.72,2-17.42a33.3,33.3,0,0,0-1.22-20.44c-1.25-3.13-3.19-6.12-3.73-9.36-.75-4-1.31-8.22,1.09-12,3.48-5.56,2.11-10.91-.51-16.67H470.59c-3.36-5.47,1.58-9.61,1.26-14.64H460.72c-.23,3.2-2.63,3.64-5.54,3.61-7.55-.09-15.1,0-22.66,0-.86,0-1.72.07-3,.14-.15,5.55-3.22,10.46-.92,16.33,1.41,3.59-1.88,5.69-4.55,7-.7,5.4-1.35,10.47-2.06,16H400.73c-2.13-3.59-2.13-3.59-10.13-3.32l-1.38,3.22c-3.25.59-6.4,1.44-10,.3-1.62-.53-4.34.47-5.79,1.7a8.89,8.89,0,0,1-6.35,2.07c-4.48,0-8.92.5-13.39.57a5.35,5.35,0,0,1-3.28-1.24,7.45,7.45,0,0,1-2.5-3.45c-1.23-5.13-5.82-8.4-7.22-13.45-.26-.92-1.31-1.62-2-2.41a19.74,19.74,0,0,1-2.84-3.19,44.33,44.33,0,0,0-7.7-10.69c-2.24-2.24-2.07-7-2.94-10.61-.21-.85.05-2-.44-2.56-4.09-4.48-4.93-10.1-6-15.69a1.22,1.22,0,0,0-.07-.53c-3.51-4.38-1.3-9-.21-13.75-5-2.11-5.35-6.78-6.24-11.4-1.68-.08-3.27-.22-4.85-.22-20,0-39.92,0-59.88.14-7,.06-14.1,1.8-20.87.84-11.84-1.68-23.64-.64-35.44-1-4.87-.13-9.95,1.57-14.6.67-5.28-1-8.79,2-13.08,3.25a120.82,120.82,0,0,1-13,3.37,6.87,6.87,0,0,1-7.17-2.7c-1.67-2.24-3.6-4.39-5.49-6.66,4-4.09,8.93-2.88,13.22-3.41,1.45-6.42,1.21-21.68-.47-26.16,3.08-1.67,6.29-3.26,9.33-5.13a6.63,6.63,0,0,0,2.19-2.93c1.71-3.73,4.61-5.6,8.54-6.45,2.24-.5,4.41-1.65,7.3-2.76,1.58,1.77,3.67,4.21,5.88,6.54,2.68,2.82,3.91,2.81,7.18.42a5.94,5.94,0,0,1,2.76-1c4-.43,5.59-1.93,5.92-6,.18-2.32.32-4.65.5-7,0-.16.2-.29.3-.44.3-.16.64-.52.9-.47,2.65.54,5.29,1.15,7.94,1.74,1.57-3.24,4.7-2.59,7.47-3.12a14.5,14.5,0,0,0,3.87-1.82c1.54-.81,3-1.7,4.69-2.64l3.25,5.72a20.7,20.7,0,0,0-2.47,2.82c-.51.85-1.16,2.47-.81,2.84,2.92,3,1.44,6.86,2,9.82l9.58,3.46c1.68-.95,3.87-2.17,6-3.47a3.46,3.46,0,0,0,1.49-1.42c2.84-7.24,9.13-11.88,13.62-17.86,1.13-1.5,4.07-2,6.26-2.28,2.71-.29,4.37-1.29,5-3.92,1.2-4.79,4.24-7.16,9.22-7.56,4.17-.34,7.21-2.2,8.76-6.68a48.84,48.84,0,0,1,6-11.43c4.34-6.28,4.45-13.23,3.46-20.17-.71-5.06.28-9.6,1.69-14.25a13,13,0,0,0,.75-4.09c-.22-5.17-.62-10.32-1-15.7,7.76-2.79,12.06-8.72,15.93-15a15.12,15.12,0,0,0,2.1-5.49,19.46,19.46,0,0,1,5.52-10.87c3.24-3.35,6.55-6.67,10.06-9.71a9.42,9.42,0,0,1,5.17-2.51c3.08-.12,4.94-1.59,6.73-3.74a130.23,130.23,0,0,1,9.83-10.74c4.37-4.05,4.15-9,3-13.89-.88-3.74-1-6.93.93-10.24a11.92,11.92,0,0,0,1.2-3.55,24.12,24.12,0,0,1,5.82-11.81c2.34-2.61,2-7.06,0-9.9-.49-.7-1.28-1.5-1.25-2.19.25-7.08-1.49-14.19,1.94-21.19,2.92-6.07,4.4-12.83,6.5-19.29.22-.68.74-1.56.49-2.06-3-6.49,1.49-12.86.29-19.33-.24-1.28-.06-3.47.75-4,3-1.85,3.69-4.48,4.18-7.63.23-1.5,1.49-2.83,2.24-4.25,3.94-7.25,8.12-14.39,11.69-21.81a17.06,17.06,0,0,0,.79-14.42c-1.56-4-.46-9.11-.29-13.72a27.17,27.17,0,0,1,1.23-5.23,11.24,11.24,0,0,0-1-8.31c-2.46-4.57-1.84-6,3.07-7.2,2.57-.66,3.79-2.11,4.88-4.43,1.19-2.52,3.12-4.7,4.76-7s3.33-4.63,5-7c.92-1.31,1.5-3.13,2.74-3.9,4.52-2.84,9-6.27,14-7.73,5.84-1.71,12-1.39,16.69,4.14a12,12,0,0,0,6.42,3.53c5.05,1,8.39,4.69,12.45,7.21,1.05.66,1.45,2.4,2.14,3.64,1,2.07,2.18,4.1,3.42,6.06a6.74,6.74,0,0,0,7,3.06,49,49,0,0,1,9.68-.33,10.75,10.75,0,0,1,4.83,1.83c2.58,1.66,4.88,3.68,8.36,2.45.75-.28,2.1.33,2.89.91,3.74,2.75,7.87,2.73,11.79,1,2.61-1.15,4.72-.83,7.17,0,5.39,1.93,10.84,3.74,16.28,5.49,4,1.3,8.69,1.19,11.1-1.81,2.15-2.69,5.15-6.13,3.68-10.81,2.86-.5,4.26-1.9,4.68-5,.62-4.43,5.23-6,7.9-9,.4-.47,2.65.33,3.82.95,3.69,2,7.19,4.31,10.93,6.18a5.49,5.49,0,0,0,6.84-1c4.38-4.29,10.11-5.52,15.89-6.68,2.24-.45,4.24-2,6.46-2.7s4.91-.68,7.17-1.49a13.53,13.53,0,0,0,4.27-3.21,45.4,45.4,0,0,0,3.42-4.15c5,1.72,8.32,5.24,12.06,8.61,1.63-.51,3.64-.65,5-1.66,3.16-2.43,5.65-1.41,8.4,1.32,1.74-2.88,3.87-4.58,7.31-4.2,2.06.23,3.34-1.19,3.11-3.44a8.8,8.8,0,0,1,2.31-6.93c3.12-3.63,6.91-4.25,11-1.5,3.73,2.56,7.42,5.19,12.3,4.52,2.56-.35,5.09-.92,8.22-1.49L704.13,164c4.68-1.59,9.8-3.39,15,0,.75-1.07,1.3-2,2-2.75a8.88,8.88,0,0,1,10.66-2.36c2.81,1.17,5.6,2.36,8.75,3.68.69,4.15,3.53,6.78,7.75,8.11a9.06,9.06,0,0,1,1.49.59c3.63,2.05,6.44,4.6,5.1,10l10.41,3.55c.12.24.74,1.49,1.4,2.72,1.43,2.53,3.65,4.29,6.5,4.12s5.23,0,6.35,3.85c3-3.74,5.63-6.15,9.53-7,1.38-.3,2.35-2.52,3.43-3.74,3.38.37,6.87.23,10,1.23s5.8,3.14,9.1,5c5.39-1.32,7.48-3.58,11.08-12.7,4.31.28,7.92,2.62,11.89,4.31.15,1.35.36,2.58.4,3.81.08,2.6.16,5,3.4,6,1,.29,1.61,1.84,2.48,2.74,2,2,2.55,5.18,6.58,5.53,2.13.18,3.57,3.67,2.9,6.43,4.36,1.69,8.56,3.09,12.52,5,1.11.54,1.78,2.55,2.07,4,.21,1.1-.5,2.38-.86,3.74,3.14,1.3,6,.65,8.7-1,2.77,1.87,2.61,5.88,5.74,7.47.48.25.18,2.66-.27,3.9-1.27,3.54-2.91,6.95-4.14,10.46-.41,1.2-.53,3.32.15,3.92,4,3.52,2.5,7.42,1.19,11.32-1.13,3.38-2.46,6.72-3.93,10.61,4,.28,6,6.27,10.25,2.18l12.39,9.77c-.94,1.71-1.71,4-3.19,5.63-4.94,5.44-10.14,10.66-15.26,15.94-3.63,3.73-7.4,7.33-10.91,11.21-2.84,3.1-5.59,6.05-10.15,6.42-1,.08-1.92.85-3,1.36a25.33,25.33,0,0,1-.31,4.35c-.75,3.09-2.34,5.45-5.83,6.14-3.78.75-4,1.16-4.15,5-.05,1.62,0,3.23,0,4.86,0,2.87.23,5.8-2.88,7.57a3,3,0,0,0-1.33,2.25c.07,4.68-2.47,8.1-5.14,11.52a3.46,3.46,0,0,0-.67,2c.09,10.95-3.87,21.48-3.34,32.47-2.81,7.59-1.5,15.52-1.9,23.38-2.84,1.7-4.49,5.17-8.52,5.07-.58,0-1.26,1.18-1.78,1.91a55.26,55.26,0,0,1-3.39,4.85c-4.11,4.49-5.44,9.31-3.11,15.21,1.23,3.11-1.11,6.59-4.61,8.62-2,1.14-4.73,2.36-5.23,4.09-.87,3-.28,6.38-.21,9.6a1.66,1.66,0,0,0,.92,1.22c3.68,1.29,4.88,4,5.59,7.67.38,2,2.48,4,4.34,5.16,2.08,1.32,2.73,2.8,2.24,4.88-2.18,9.65.88,19.27.09,28.9a3.73,3.73,0,0,0,.61,2.54c6.67,7.6,5.23,17.08,6.05,26a7.32,7.32,0,0,1-.91,3.57c-2.24,4.68-2.08,9.27-.21,14.06,2.87,7.37,5.37,14.87,8.16,22.27,1.49,4,1.84,7.54-1.2,11-3.8,4.39-1.6,9.36-.57,13.93,2.24,10.1,7.91,17.75,17.07,23.07,7.12,4.12,12.55,10.07,15,18.31a130.87,130.87,0,0,0,15.51,34.23C872.33,685.49,872.34,686.45,872.74,688.05Z"/></clipPath></defs><title>Flag-of-Congo</title><g class="cls-2"><rect id="_3" data-name=" 3" class="cls-3" x="137.91" y="116.89" width="876.65" height="782.94"/><polygon class="cls-4" points="396.32 272.51 442.02 272.51 456.18 226.12 470.31 272.51 516.02 272.51 479.02 301.23 493.17 347.63 456.18 318.9 419.18 347.63 433.32 301.23 396.32 272.51"/><polyline class="cls-4" points="959.77 116.89 137.91 704.1 137.91 899.83 137.91 899.83 192.71 899.83 1014.56 312.62 1014.56 116.89 959.77 116.89"/><path id="_1" data-name=" 1" class="cls-5" d="M1014.56,116.91,137.88,743.24V899.83h0l876.68-626.35V116.91"/></g></svg>